# xmcd
#
# Track frame offsets: 
#        183
#        9443
#        21993
#        32333
#        43118
#        57260
#        68870
#        80055
#        94415
#        105735
#        120558
#        133000
#        144598
#        159178
#        169795
#        183550
#        196728
#        209648
#        220255
#        232990
#
# Disc length: 3279 seconds
#
# Revision: 3
# Processed by: cddbd v1.5.1PL2 Copyright (c) Steve Scherf et al.
# Submitted via: ExactAudioCopy v0.95b4
#
DISCID=190ccd14
DTITLE=Frankie Laine - Greatest Hits
DYEAR=1900
DGENRE=Country
TTITLE0=Rawhide
TTITLE1=Moonlight Gambler
TTITLE2=I Believe
TTITLE3=Hummingbird
TTITLE4=Don't Fence Me In
TTITLE5=Strange Lady In Town
TTITLE6=Rose, Rose, I Love You
TTITLE7=There Must Be A Reason
TTITLE8=Answer Me (Mutterlein)
TTITLE9=Jezebel
TTITLE10=High Noon (Do Not Forsake Me)
TTITLE11=Mule Train
TTITLE12=Jealousy
TTITLE13=Sixteen Tons
TTITLE14=Cool Water
TTITLE15=Wheel Of Fortune
TTITLE16=Rain, Rain, Rain
TTITLE17=A Women In Love
TTITLE18=Granada
TTITLE19=Cry Of The Wild Goose
EXTD=ID3G: 2
EXTT0=
EXTT1=
EXTT2=
EXTT3=
EXTT4=
EXTT5=
EXTT6=
EXTT7=
EXTT8=
EXTT9=
EXTT10=
EXTT11=
EXTT12=
EXTT13=
EXTT14=
EXTT15=
EXTT16=
EXTT17=
EXTT18=
EXTT19=
PLAYORDER=
